<?xml version="1.0" encoding="utf-8"?>
<!-- Generator: Adobe Illustrator 21.1.0, SVG Export Plug-In . SVG Version: 6.00 Build 0)  -->
<svg version="1.1" id="Layer_1" xmlns="http://www.w3.org/2000/svg" xmlns:xlink="http://www.w3.org/1999/xlink" x="0px" y="0px"
	 viewBox="0 0 500 142.6" style="enable-background:new 0 0 500 142.6;" xml:space="preserve">
<style type="text/css">
	.st0{fill:#010101;}
</style>
<g>
	<path class="st0" d="M319,19.9v35.8h39.6V63H319v41h52.3v6.7H276V104h35.6V18.4L319,19.9z"/>
	<g>
		<polygon class="st0" points="453.5,93.4 446.8,74.8 440.5,74.8 447.2,93.4 		"/>
		<path class="st0" d="M422.6,99.1h61.7v5.6h-61.7V99.1z"/>
		<g>
			<polygon class="st0" points="452.8,65.6 446.8,48.9 440.5,48.9 446.5,65.6 			"/>
		</g>
		<path class="st0" d="M408.1,70.9h77v5.6h-77V70.9z"/>
		<path class="st0" d="M425.6,48.5h47.8v5.6h-47.8V48.5z"/>
		<path class="st0" d="M420.8,30.3h62.1V36h-62.1V30.3z"/>
		<path class="st0" d="M475.7,48.6l-2.7,63.7l-5.8,3.5l2.9-67.2H475.7z"/>
		<path class="st0" d="M429.4,48.6l-7.9,62.2l-5.6-1.6l7.9-60.6L429.4,48.6L429.4,48.6z"/>
		<path class="st0" d="M425,83.4c0,0,0.1-1.1,0.2-1.6c0.4-3,1.5-5.3,5.5-5.3h3.4l-0.2-2.7l-11.4-0.4l0.1,7.6l1,1.5L425,83.4z"/>
		<polygon class="st0" points="417.8,49 428.7,18.7 422.7,18.7 411.9,49 		"/>
		<polygon class="st0" points="408.9,49 402.6,49 393,22.2 399.3,22.2 		"/>
		<polygon class="st0" points="400.9,67.6 394.6,67.6 386.2,44.7 392.5,44.7 		"/>
		<polygon class="st0" points="382.5,112.9 388.8,112.9 402,76.4 395.7,76.4 		"/>
		<path class="st0" d="M473.2,99.6c0.6-5.7,1-13.8,1.4-23.4h10.2v-5h-10.1c0-0.2,0.8-22.5,0.9-22.8h-1.9h-50.2
			c-0.7,7.2-1.7,14.1-2.7,22.8h-12.5v5h12.1c-1.2,9.1-2.7,21.1-4,29.7h5.1c0.1-0.5,0.1-0.9,0.2-1.3h46h5.1L473.2,99.6z M468.2,99.6
			h-45.8c1-6.8,2-15.4,3-23.4h20.3h4.7h19.3C469.2,85.8,468.7,94.1,468.2,99.6z M469.7,71.3h-19.1h-4.8h-20.1
			c0.9-7.3,1.7-11.3,2.4-17.8h42.2L469.7,71.3z"/>
	</g>
	<path class="st0" d="M198.4,67.7c-0.6-12-3.6-22.4-9.1-31c-6.2-9.6-13.7-14.4-22.5-14.4c-7.4,0-13.5,3.5-18.1,10.5s-7,16.1-7,27.4
		c0,2.6,0.1,5.1,0.3,7.6c1,12.7,4.9,23,11.5,30.8c5.9,6.9,12.5,10.4,19.8,10.4c7.5,0,13.6-3.4,18.2-10.3c4.6-6.8,6.9-15.8,6.9-26.9
		C198.5,70.3,198.4,69,198.4,67.7z M44.4,67.7L44.4,67.7c0,0.1,0,0.1,0,0.2c0,1.1,0.8,1.7,2.4,1.7l1.4,0h15.4c1.7,0,2.6-0.6,2.6-1.7
		c0-0.1,0-0.2,0-0.3c0-0.3-0.1-0.7-0.2-1.2l-0.3-1.2l-8-26.2l-0.4-1.4c-0.4-1.4-0.9-2.1-1.3-2.2c-0.3,0-0.5,0.4-0.8,1.3L45,65.5
		C44.6,66.5,44.4,67.2,44.4,67.7L44.4,67.7z M90.3,67.7L90.3,67.7V36.5c0-4.7-0.4-8.1-1.2-10c-0.8-1.9-2.3-3.1-4.5-3.8l-2.5-0.7
		c-0.9-0.3-1.3-0.7-1.3-1.3c0-0.9,0.5-1.3,1.4-1.3c0.5,0,1.1,0.1,1.8,0.2c1.7,0.3,4.5,0.4,8.2,0.4l1.9-0.1l3.8-0.2
		c1,0,1.9,0,2.7-0.1c1.3-0.2,2.2-0.3,2.5-0.3c0.8,0,1.2,0.3,1.2,1.2c0,0.6-0.4,1.1-1.2,1.5c-2.2,1.2-3.5,2.6-4.1,4.1
		c-0.6,1.5-0.8,4.6-0.8,9.1v26.1c0,0.9,0.2,1.4,0.5,1.4l0.8-0.7l0.8-0.8l21.9-25.6c3.4-3.9,5-7,5-9.4c0-2-1.2-3.4-3.7-3.9
		c-1.5-0.3-2.3-0.8-2.3-1.7c0-0.9,0.5-1.3,1.6-1.3c0.3,0,0.8,0,1.4,0.1c1.4,0.2,3,0.3,4.8,0.3l4.7,0.2l3.8-0.1
		c2.1,0,3.6-0.1,4.3-0.2c0.8-0.2,1.3-0.3,1.6-0.3c0.9,0,1.4,0.4,1.5,1.3c0,0.7-0.8,1.3-2.4,1.8c-3,1-9,6.6-17.6,16.8l-17.5,20.6
		c-0.7,0.9-1.1,1.6-1.2,2.1c0,0.7,0.4,1.6,1.2,2.8l2.1,2.9l24.5,33.3c2.8,3.9,5.9,6.2,9.2,7.1l1.7,0.5c1.2-1.7,2.4-3,3.8-3.7
		c-9.7-9.8-14.8-22.2-15.1-37.2l0,0c0-0.6,0-1.1,0-1.7c0-12.6,2.8-23.2,8.3-32.1c6.6-10.4,15.9-15.7,27.9-15.7
		c10.6,0,19.3,4.4,25.9,13.1c6.7,8.7,10,20,10,33.9c0,0.8,0,1.6,0,2.4l0,0c-0.3,8-1.8,15.4-4.6,22.1c-3.1,7.4-7.3,13.1-12.7,17.1
		c-1.7,1.2-3.5,2.3-5.5,3.2c-2,0.9-4.2,1.7-6.6,2.3c3.4,2.3,5.8,4,7.2,5l4.7,4.1l0.8,0.7l3.1,2.6c3,2.5,5.4,3.7,7.3,3.7
		c2.9,0,5.4-0.7,7.4-2.2c0.6-0.4,1.1-0.7,1.4-0.7c0.6,0,0.9,0.3,0.9,1c0.1,1.6-1.5,3.3-4.8,5c-3.3,1.7-6.4,2.6-9.4,2.6
		c-4.1,0-8.9-2.1-14.4-6.3c-3.7-2.8-6.2-4.7-7.7-5.8c-0.5-0.4-0.9-0.7-1.1-0.8l-8.6-5.9c-5.1-3.5-8.8-5.3-11.2-5.3
		c-2.1,0-4,1.1-5.7,3.3s-2.8,4.8-3.2,7.9c0,0.3-0.1,0.5-0.1,0.8l0,0c-0.2,1.1-0.6,1.7-1.1,1.7c-0.8,0-1.2-0.6-1.3-1.6l0,0
		c0-0.1,0-0.3,0-0.5c0.1-3.4,1-6.8,2.6-10.1l0.1-0.3c-0.8-0.1-2.1-0.1-4-0.1c-2,0-3.5,0-4.4,0.1c-1,0.1-1.8,0.1-2.4,0.1
		c-1,0-1.9-0.4-2.7-1.3l0,0c-0.1-0.1-0.2-0.3-0.3-0.4l-0.9-1.2l-27.4-36.7l-1-1.4c-0.4-0.5-0.8-0.7-1.3-0.7c-0.6,0-1,0.5-1,1.5v24.3
		c0,5.1,0.5,8.4,1.6,10.1c1,1.7,3.5,2.9,7.2,3.7c0.7,0.2,1.2,0.5,1.4,1c0,0.1,0.1,0.3,0.1,0.5c0,0.9-0.4,1.3-1.2,1.3
		c-0.5,0-1.4-0.2-2.8-0.3c-1.1-0.2-14.6-0.7-15.9-0.8c-1.8,0-4,0-6.5,0c-4.7,0-7.7,0.1-8.9,0.4c-0.7,0.2-1.3,0.3-1.6,0.3
		c-0.9,0-1.3-0.4-1.3-1.3c0,0,0,0,0-0.1c0-0.7,0.4-1.2,1.3-1.4L73,108c1.7-0.4,2.6-2,2.6-4.5c0-2.4-1-7-3.1-14l-2.6-8.7
		c-0.7-2.4-1.3-3.8-1.7-4.2c-0.4-0.4-1.6-0.6-3.5-0.6H46.2c-2.5,0-4.1,0.3-4.7,0.8c-0.6,0.5-1.4,2.3-2.4,5.3l-3.2,9.8
		c-1.5,4.4-2.3,7.7-2.3,9.9c0,2.1,0.4,3.6,1.2,4.5c0.8,0.9,2.4,1.7,4.7,2.4c0.9,0.2,1.4,0.7,1.6,1.3c0,0.1,0,0.2,0,0.2
		c0,0.7-0.4,1.1-1.4,1.1c-0.4,0-1,0-1.7-0.1l-4.9-0.3c-1.6-0.1-3.5-0.1-5.7-0.1c-1,0-1.7,0-2.3,0.1c-1.7,0.3-2.7,0.4-2.8,0.4
		c-0.9,0-1.4-0.4-1.4-1.3c0,0,0-0.1,0-0.1l0,0c0-0.7,0.3-1.1,0.9-1.3l1.9-0.7c0.7-0.3,1.6-1.3,2.7-3.2c1.2-1.9,2.1-3.8,2.9-5.9
		l1.5-4.4l9.3-26.8l17-48.9c0.4-1.3,0.9-2,1.5-2c0.5,0,1,0.7,1.3,1.9l14.8,49l7.2,24l1.1,3.6c1.6,5.4,2.9,8.7,4,10
		c0.3,0.4,0.8,0.8,1.4,1.2c0.3-0.4,0.5-0.9,0.7-1.4c0.8-2.4,1.3-6.3,1.3-11.9L90.3,67.7 M237.1,67.7c0-0.3-0.1-0.7-0.2-1.2l-0.3-1.2
		l-8-26.2l-0.4-1.4c-0.4-1.4-0.8-2.1-1.3-2.2c-0.3,0-0.5,0.4-0.8,1.3l-10,28.6c-0.4,1-0.6,1.8-0.7,2.3l0,0c0,0.1,0,0.1,0,0.2
		c0,1.1,0.8,1.7,2.4,1.7l1.4,0h15.4c1.7,0,2.6-0.6,2.6-1.7C237.1,67.9,237.1,67.8,237.1,67.7z M245.7,67.7l7.2,24l1.1,3.6
		c1.6,5.4,2.9,8.7,4,10c1,1.3,3.2,2.4,6.4,3.1c1,0.3,1.6,0.8,1.5,1.6l0,0l0,0c0,0.7-0.5,1.1-1.4,1.1c-0.3,0-1,0-1.9-0.1
		c-1.8-0.2-4.9-0.3-9.4-0.3c-4.7,0-7.7,0.1-8.9,0.4c-0.7,0.2-1.2,0.3-1.6,0.3c-0.9,0-1.3-0.4-1.3-1.3v-0.1c0-0.7,0.4-1.2,1.3-1.4
		l1.6-0.5c1.7-0.4,2.6-2,2.6-4.5c0-2.4-1-7-3.1-14l-2.6-8.7c-0.7-2.4-1.3-3.8-1.7-4.2c-0.4-0.4-1.6-0.6-3.5-0.6h-18.5
		c-2.5,0-4.1,0.3-4.7,0.8s-1.4,2.3-2.4,5.3l-3.4,9.7c-1.5,4.4-2.3,7.7-2.3,9.9c0,2.1,0.4,3.6,1.2,4.5c0.8,0.9,2.4,1.7,4.7,2.4
		c0.9,0.2,1.4,0.7,1.6,1.3c0,0.1,0,0.2,0,0.2c0,0.7-0.4,1.1-1.4,1.1c-0.4,0-1,0-1.7-0.1l-4.9-0.3c-1.6-0.1-3.5-0.1-5.7-0.1
		c-1,0-1.7,0-2.3,0.1c-1.7,0.3-2.7,0.4-2.8,0.4c-0.9,0-1.4-0.4-1.4-1.3c0,0,0-0.1,0-0.1l0,0c0-0.7,0.3-1.1,0.9-1.3l1.9-0.7
		c0.7-0.3,1.6-1.3,2.7-3.2c1.2-1.9,2.1-3.8,2.9-5.9l1.5-4.4l9.3-26.8l17-48.9c0.4-1.3,0.9-2,1.5-2c0.5,0,1,0.7,1.3,1.9L245.7,67.7z"
		/>
</g>
</svg>
